<svg version="1.2" xmlns="http://www.w3.org/2000/svg" viewBox="0 0 400 400" width="400" height="400"><style>.a{fill:#513900}.b{fill:#986b00}</style><path class="a" d="m26 337h113v19h-113z"/><path class="a" d="m72 61h22v280h-22z"/><path class="a" d="m58 45h230v29h-230z"/><path class="b" d="m255 71h14v59h-14z"/><path  d="m262.5 182c-17.4 0-31.5-13.9-31.5-31 0-17.1 14.1-31 31.5-31 17.4 0 31.5 13.9 31.5 31 0 17.1-14.1 31-31.5 31z"/><path  d="m255 177h17v83h-17z"/><path  d="m270.2 191.7l58.3 43.9-9.7 12.7-58.3-43.9z"/></svg>